# xmcd
#
# Track frame offsets: 
#        150
#        21872
#        39025
#        55000
#        73142
#        88305
#        106200
#        124020
#        144627
#        167870
#        186790
#        202575
#        218907
#        241610
#        263592
#        283522
#        299447
#        318855
#
# Disc length: 4546 seconds
#
# Revision: 0
# Processed by: cddbd v1.5.1PL0 Copyright (c) Steve Scherf et al.
# Submitted via: ExactAudioCopy v0.95a3
#
DISCID=fc11c012
DTITLE=Absolute Ballads. Vol.1 - Absolute Ballads. Vol.1
DYEAR=1900
DGENRE=Ballad
TTITLE0=Chris Isaac. Wicked Game
TTITLE1=Stevie B. Because I Love You
TTITLE2=Linda Ronstadt feat. Aaron Neville. Don't Know Much
TTITLE3=Cyndi Lauper. Time after Time
TTITLE4=Tony Carey. Room With A View
TTITLE5=Te Cars. Drive
TTITLE6=Banles. Eternal Flame
TTITLE7=Terence Trend D'Arby. Sing
TTITLE8=T'Pau. China In Your Hand
TTITLE9=Berlin. Take My Breath Away
TTITLE10=Elton John. Blue Eyes
TTITLE11=Beverly Craven. Promise Ne
TTITLE12=Wham feat. George Michael
TTITLE13=Roxette. Listen To Your Heart
TTITLE14=Richard Marx. Right Here Waiting
TTITLE15=Mariah Carey. Vision Of Love
TTITLE16=Simply Red. For Your Babies
TTITLE17=Annie Lennox. Why
EXTD=
EXTT0=
EXTT1=
EXTT2=
EXTT3=
EXTT4=
EXTT5=
EXTT6=
EXTT7=
EXTT8=
EXTT9=
EXTT10=
EXTT11=
EXTT12=
EXTT13=
EXTT14=
EXTT15=
EXTT16=
EXTT17=
PLAYORDER=
